<?xml version="1.0" encoding="UTF-8" standalone="no"?>
<!-- Generator: Adobe Illustrator 16.0.0, SVG Export Plug-In . SVG Version: 6.00 Build 0)  -->

<svg
   xmlns:dc="http://purl.org/dc/elements/1.1/"
   xmlns:cc="http://creativecommons.org/ns#"
   xmlns:rdf="http://www.w3.org/1999/02/22-rdf-syntax-ns#"
   xmlns:svg="http://www.w3.org/2000/svg"
   xmlns="http://www.w3.org/2000/svg"
   xmlns:sodipodi="http://sodipodi.sourceforge.net/DTD/sodipodi-0.dtd"
   xmlns:inkscape="http://www.inkscape.org/namespaces/inkscape"
   version="1.1"
   id="Capa_1"
   x="0px"
   y="0px"
   width="912.18719"
   height="912.18719"
   viewBox="0 0 912.18719 912.18719"
   xml:space="preserve"
   sodipodi:docname="icon.svg"
   inkscape:version="0.91 r13725"><metadata
     id="metadata45"><rdf:RDF><cc:Work
         rdf:about=""><dc:format>image/svg+xml</dc:format><dc:type
           rdf:resource="http://purl.org/dc/dcmitype/StillImage" /><dc:title /></cc:Work></rdf:RDF></metadata><defs
     id="defs43" /><sodipodi:namedview
     pagecolor="#ffffff"
     bordercolor="#666666"
     borderopacity="1"
     objecttolerance="10"
     gridtolerance="10"
     guidetolerance="10"
     inkscape:pageopacity="0"
     inkscape:pageshadow="2"
     inkscape:window-width="1920"
     inkscape:window-height="1137"
     id="namedview41"
     showgrid="false"
     inkscape:zoom="0.42140707"
     inkscape:cx="-21.907973"
     inkscape:cy="433.77932"
     inkscape:window-x="-8"
     inkscape:window-y="-8"
     inkscape:window-maximized="1"
     inkscape:current-layer="g6"
     inkscape:snap-bbox="true"
     inkscape:bbox-paths="true"
     inkscape:bbox-nodes="true"
     inkscape:snap-bbox-edge-midpoints="true"
     inkscape:snap-bbox-midpoints="true"
     fit-margin-top="0"
     fit-margin-left="0"
     fit-margin-right="0"
     fit-margin-bottom="0" /><g
     id="g8"
     transform="translate(65.045715,59.887543)"><g
       id="g6"><path
         d="m 376.60536,92.706023 c 3.25852,-5.572317 8.29943,-8.260067 14.44252,-8.260067 6.75874,0 11.34146,2.94992 14.44252,8.260067 123.51762,213.194307 185.60748,351.259157 185.60748,415.177067 0,36.25392 -8.79777,69.8193 -26.73422,100.50011 -18.01517,30.81229 -42.4096,55.00283 -73.13608,72.83535 -30.72805,17.83173 -64.22731,26.7476 -100.1797,26.7476 -35.95161,0 -69.45243,-8.91587 -100.17891,-26.7476 -30.73356,-17.83173 -54.89182,-42.15374 -72.82826,-72.83535 -18.01517,-30.81229 -27.04283,-64.24619 -27.04283,-100.50011 7.9e-4,-63.91791 61.64426,-202.24492 185.60748,-415.177067 z M 247.23357,591.46943 c 15.05896,25.50213 35.40131,45.36582 60.8444,60.24764 25.57378,14.94716 53.16061,22.42074 82.96991,22.42074 30.11713,0 58.01257,-7.47279 83.58635,-22.42074 25.43679,-14.88103 45.5957,-34.68016 60.53657,-60.24764 14.86843,-25.43679 22.12552,-53.42907 22.12552,-83.58634 0,-16.91378 -5.74946,-41.17044 -17.20901,-73.09673 -11.59101,-32.3207 -26.64919,-67.06621 -44.86747,-104.17117 -36.79163,-75.06333 -70.98683,-138.32701 -104.17196,-195.16497 -33.18513,56.83875 -67.13155,120.23311 -103.87044,195.16575 -18.27102,37.23645 -33.3103,71.91739 -44.86039,104.17118 -11.4926,31.99241 -17.51761,56.18216 -17.51761,73.09672 0,30.15649 7.37518,58.08421 22.43413,83.58556 z"
         id="path2"
         inkscape:connector-curvature="0"
         inkscape:export-filename="D:\code\Fluicell\Git\Labonatip2.0\apps\Lab-on-a-tip\icons\droplet.png"
         inkscape:export-xdpi="30"
         inkscape:export-ydpi="30"
         style="fill:#646464;fill-opacity:1;stroke-width:0.78727299" /><path
         d="m 327.43701,391.45328 c 6.99492,5.89983 8.08372,16.97912 1.84222,23.92917 -1.44858,1.63831 -6.37928,7.40745 -15.36048,22.15858 -4.53706,7.40824 -8.17505,15.40615 -11.37374,23.92916 -6.32652,16.97912 -12.3838,40.18714 -8.29313,61.49311 6.05177,31.53343 27.86868,59.13286 67.29531,82.01259 8.2081,4.78583 11.02733,14.15989 6.15018,22.48609 -3.41598,5.76913 -7.99162,8.91586 -14.44961,8.91586 -2.76018,0 -5.52666,-0.65579 -8.60096,-1.90126 -48.86052,-27.92772 -76.70322,-63.00074 -83.89417,-105.6788 -11.85948,-70.40976 40.60597,-133.01685 42.71743,-135.50858 6.18796,-7.34289 16.82166,-7.93335 23.96695,-1.83592 z"
         id="path4"
         inkscape:connector-curvature="0"
         inkscape:export-filename="D:\code\Fluicell\Git\Labonatip2.0\apps\Lab-on-a-tip\icons\droplet.png"
         inkscape:export-xdpi="30"
         inkscape:export-ydpi="30"
         style="fill:#646464;fill-opacity:1;stroke:#666666;stroke-width:0.78727299;stroke-opacity:1" /><circle
         style="fill:none;fill-opacity:1;stroke:#9fbe66;stroke-width:20;stroke-miterlimit:4;stroke-dasharray:none;stroke-opacity:1"
         id="path4555"
         cx="391.04788"
         cy="396.20605"
         r="446.0936"
         inkscape:export-filename="D:\code\Fluicell\Git\Labonatip2.0\apps\Lab-on-a-tip\icons\droplet.png"
         inkscape:export-xdpi="30"
         inkscape:export-ydpi="30" /></g></g><g
     id="g10"
     transform="translate(65.045715,59.887543)" /><g
     id="g12"
     transform="translate(65.045715,59.887543)" /><g
     id="g14"
     transform="translate(65.045715,59.887543)" /><g
     id="g16"
     transform="translate(65.045715,59.887543)" /><g
     id="g18"
     transform="translate(65.045715,59.887543)" /><g
     id="g20"
     transform="translate(65.045715,59.887543)" /><g
     id="g22"
     transform="translate(65.045715,59.887543)" /><g
     id="g24"
     transform="translate(65.045715,59.887543)" /><g
     id="g26"
     transform="translate(65.045715,59.887543)" /><g
     id="g28"
     transform="translate(65.045715,59.887543)" /><g
     id="g30"
     transform="translate(65.045715,59.887543)" /><g
     id="g32"
     transform="translate(65.045715,59.887543)" /><g
     id="g34"
     transform="translate(65.045715,59.887543)" /><g
     id="g36"
     transform="translate(65.045715,59.887543)" /><g
     id="g38"
     transform="translate(65.045715,59.887543)" /></svg>